<?xml version="1.0" encoding="UTF-8" standalone="no"?><!DOCTYPE svg PUBLIC "-//W3C//DTD SVG 1.1//EN" "http://www.w3.org/Graphics/SVG/1.1/DTD/svg11.dtd"><svg width="100%" height="100%" viewBox="0 0 193 199" version="1.1" xmlns="http://www.w3.org/2000/svg" xmlns:xlink="http://www.w3.org/1999/xlink" xml:space="preserve" xmlns:serif="http://www.serif.com/" style="fill-rule:evenodd;clip-rule:evenodd;stroke-linejoin:round;stroke-miterlimit:2;"><path d="M10.593,44.879c17.733,-27.021 48.3,-44.879 83.005,-44.879c54.757,0 99.213,44.456 99.213,99.213c0,54.757 -44.456,99.213 -99.213,99.213c-34.705,0 -65.272,-17.858 -83.005,-44.879c-4.252,-6.479 -7.758,-13.488 -10.423,-20.898c-0.003,-0.009 -0.006,-0.017 -0.009,-0.026c-0.457,-1.295 0.082,-2.734 1.281,-3.409c1.169,-0.658 2.633,-0.403 3.513,0.595c4.26,5.426 9.626,9.943 15.757,13.211c4.411,7.318 9.892,13.919 16.227,19.586c15.046,13.459 34.904,21.646 56.66,21.646c46.935,0 85.039,-38.105 85.039,-85.039c0,-46.935 -38.105,-85.039 -85.039,-85.039c-21.756,0 -41.614,8.187 -56.66,21.646c-6.335,5.667 -11.816,12.268 -16.227,19.586c-5.999,3.198 -11.266,7.592 -15.481,12.863c-0.889,1.093 -2.437,1.383 -3.662,0.686c-1.224,-0.697 -1.765,-2.177 -1.279,-3.499c2.639,-7.295 6.113,-14.192 10.303,-20.577Z" style="fill:#212529;"/><path d="M5.231,68.268c-0.889,1.093 -2.437,1.383 -3.662,0.686c-1.224,-0.697 -1.765,-2.177 -1.279,-3.499c2.639,-7.295 6.113,-14.192 10.303,-20.577c7.824,-4.823 16.767,-8.004 26.346,-9.059c2.316,-0.255 4.67,-0.386 7.054,-0.386c35.201,0 63.78,28.579 63.78,63.78c0,35.201 -28.579,63.78 -63.78,63.78c-2.384,0 -4.737,-0.131 -7.054,-0.386c-9.579,-1.056 -18.521,-4.236 -26.346,-9.059c-4.252,-6.479 -7.766,-13.485 -10.423,-20.898c-0.473,-1.302 0.065,-2.755 1.272,-3.434c1.207,-0.68 2.728,-0.386 3.596,0.694c4.244,5.383 9.581,9.864 15.673,13.112c6.944,3.701 14.869,5.799 23.281,5.799c27.378,0 49.606,-22.228 49.606,-49.606c0,-27.378 -22.228,-49.606 -49.606,-49.606c-8.411,0 -16.337,2.098 -23.281,5.799c-5.999,3.198 -11.266,7.592 -15.481,12.863Z" style="fill:#212529;"/></svg>