<?xml version="1.0" encoding="UTF-8" standalone="no"?><!DOCTYPE svg PUBLIC "-//W3C//DTD SVG 1.1//EN" "http://www.w3.org/Graphics/SVG/1.1/DTD/svg11.dtd"><svg width="100%" height="100%" viewBox="0 0 227 227" version="1.1" xmlns="http://www.w3.org/2000/svg" xmlns:xlink="http://www.w3.org/1999/xlink" xml:space="preserve" xmlns:serif="http://www.serif.com/" style="fill-rule:evenodd;clip-rule:evenodd;stroke-linejoin:round;stroke-miterlimit:2;"><path d="M113.386,42.52c39.112,0 70.866,31.754 70.866,70.866c0,39.112 -31.754,70.866 -70.866,70.866c-39.112,0 -70.866,-31.754 -70.866,-70.866c0,-39.112 31.754,-70.866 70.866,-70.866Zm0,14.173c-31.29,0 -56.693,25.403 -56.693,56.693c0,31.29 25.403,56.693 56.693,56.693c31.29,0 56.693,-25.403 56.693,-56.693c0,-31.29 -25.403,-56.693 -56.693,-56.693Z" style="fill:#e8e8e8;"/><path d="M120.472,3.543l0,21.26c0,1.956 -1.588,3.543 -3.543,3.543l-7.087,0c-1.956,0 -3.543,-1.588 -3.543,-3.543l0,-21.26c0,-1.956 1.588,-3.543 3.543,-3.543l7.087,0c1.956,0 3.543,1.588 3.543,3.543Z" style="fill:#e8e8e8;"/><path d="M196.067,40.726l-15.033,15.033c-1.383,1.383 -3.628,1.383 -5.011,0l-5.011,-5.011c-1.383,-1.383 -1.383,-3.628 0,-5.011l15.033,-15.033c1.383,-1.383 3.628,-1.383 5.011,-0l5.011,5.011c1.383,1.383 1.383,3.628 -0,5.011Z" style="fill:#e8e8e8;"/><path d="M223.228,120.472l-21.26,0c-1.956,0 -3.543,-1.588 -3.543,-3.543l0,-7.087c0,-1.956 1.588,-3.543 3.543,-3.543l21.26,0c1.956,0 3.543,1.588 3.543,3.543l0,7.087c0,1.956 -1.588,3.543 -3.543,3.543Z" style="fill:#e8e8e8;"/><path d="M186.045,196.067l-15.033,-15.033c-1.383,-1.383 -1.383,-3.628 0,-5.011l5.011,-5.011c1.383,-1.383 3.628,-1.383 5.011,0l15.033,15.033c1.383,1.383 1.383,3.628 0,5.011l-5.011,5.011c-1.383,1.383 -3.628,1.383 -5.011,-0Z" style="fill:#e8e8e8;"/><path d="M106.299,223.228l0,-21.26c0,-1.956 1.588,-3.543 3.543,-3.543l7.087,0c1.956,0 3.543,1.588 3.543,3.543l0,21.26c0,1.956 -1.588,3.543 -3.543,3.543l-7.087,0c-1.956,0 -3.543,-1.588 -3.543,-3.543Z" style="fill:#e8e8e8;"/><path d="M30.704,186.045l15.033,-15.033c1.383,-1.383 3.628,-1.383 5.011,-0l5.011,5.011c1.383,1.383 1.383,3.628 -0,5.011l-15.033,15.033c-1.383,1.383 -3.628,1.383 -5.011,0l-5.011,-5.011c-1.383,-1.383 -1.383,-3.628 0,-5.011Z" style="fill:#e8e8e8;"/><path d="M3.543,106.299l21.26,0c1.956,0 3.543,1.588 3.543,3.543l0,7.087c0,1.956 -1.588,3.543 -3.543,3.543l-21.26,0c-1.956,0 -3.543,-1.588 -3.543,-3.543l0,-7.087c0,-1.956 1.588,-3.543 3.543,-3.543Z" style="fill:#e8e8e8;"/><path d="M40.726,30.704l15.033,15.033c1.383,1.383 1.383,3.628 0,5.011l-5.011,5.011c-1.383,1.383 -3.628,1.383 -5.011,0l-15.033,-15.033c-1.383,-1.383 -1.383,-3.628 0,-5.011l5.011,-5.011c1.383,-1.383 3.628,-1.383 5.011,0Z" style="fill:#e8e8e8;"/></svg>