<?xml version="1.0" encoding="UTF-8" standalone="no"?><!DOCTYPE svg PUBLIC "-//W3C//DTD SVG 1.1//EN" "http://www.w3.org/Graphics/SVG/1.1/DTD/svg11.dtd"><svg width="100%" height="100%" viewBox="0 0 205 155" version="1.1" xmlns="http://www.w3.org/2000/svg" xmlns:xlink="http://www.w3.org/1999/xlink" xml:space="preserve" xmlns:serif="http://www.serif.com/" style="fill-rule:evenodd;clip-rule:evenodd;stroke-linejoin:round;stroke-miterlimit:2;"><path d="M141.732,70.153l0,14.173c0,3.911 -3.175,7.087 -7.087,7.087l-127.559,0c-3.911,0 -7.087,-3.175 -7.087,-7.087l0,-14.173c0,-3.911 3.175,-7.087 7.087,-7.087l127.559,0c3.911,0 7.087,3.175 7.087,7.087Z" style="fill:#212529;"/><path d="M132.486,2.074l70.154,70.154c2.766,2.766 2.766,7.256 0,10.022l-10.022,10.022c-2.766,2.766 -7.256,2.766 -10.022,0l-70.154,-70.154c-2.766,-2.766 -2.766,-7.256 -0,-10.022l10.022,-10.022c2.766,-2.766 7.256,-2.766 10.022,0Z" style="fill:#212529;"/><path d="M112.442,132.36l70.154,-70.154c2.766,-2.766 7.256,-2.766 10.022,-0l10.022,10.022c2.766,2.766 2.766,7.256 0,10.022l-70.154,70.154c-2.766,2.766 -7.256,2.766 -10.022,0l-10.022,-10.022c-2.766,-2.766 -2.766,-7.256 0,-10.022Z" style="fill:#212529;"/></svg>